<?xml version="1.0" standalone="no"?>
<!DOCTYPE svg PUBLIC "-//W3C//DTD SVG 1.1//EN" "http://www.w3.org/Graphics/SVG/1.1/DTD/svg11.dtd" >
<svg>
<metadata>
Created by FontForge 20120731 at Wed Dec  7 17:28:39 2016
 By www-data
http://www2.117.ne.jp/~gyusan/
</metadata>
<defs>
<font id="annone" horiz-adv-x="512" >
  <font-face 
    font-family="annone"
    font-weight="400"
    font-stretch="normal"
    units-per-em="1024"
    panose-1="2 11 6 0 0 0 0 0 0 0"
    ascent="880"
    descent="-144"
    x-height="497"
    cap-height="800"
    bbox="3.07692 -53.3333 723.448 828"
    underline-thickness="48"
    underline-position="-72"
    unicode-range="U+0020-2219"
  />
<missing-glyph 
d="M206 400v100h100v-100h-100z" />
    <glyph glyph-name=".notdef" 
d="M206 400v100h100v-100h-100z" />
    <glyph glyph-name="glyph1" horiz-adv-x="0" 
 />
    <glyph glyph-name="space" unicode=" " 
 />
    <glyph glyph-name="exclam" unicode="!" 
 />
    <glyph glyph-name="quotedbl" unicode="&#x22;" 
 />
    <glyph glyph-name="numbersign" unicode="#" 
 />
    <glyph glyph-name="dollar" unicode="$" 
 />
    <glyph glyph-name="percent" unicode="%" 
 />
    <glyph glyph-name="ampersand" unicode="&#x26;" 
 />
    <glyph glyph-name="quotesingle" unicode="'" 
 />
    <glyph glyph-name="parenleft" unicode="(" 
 />
    <glyph glyph-name="parenright" unicode=")" 
 />
    <glyph glyph-name="asterisk" unicode="*" 
 />
    <glyph glyph-name="plus" unicode="+" 
 />
    <glyph glyph-name="comma" unicode="," 
 />
    <glyph glyph-name="hyphen" unicode="-" 
 />
    <glyph glyph-name="period" unicode="." 
 />
    <glyph glyph-name="slash" unicode="/" 
 />
    <glyph glyph-name="zero" unicode="0" 
 />
    <glyph glyph-name="one" unicode="1" 
 />
    <glyph glyph-name="two" unicode="2" 
 />
    <glyph glyph-name="three" unicode="3" 
 />
    <glyph glyph-name="four" unicode="4" 
 />
    <glyph glyph-name="five" unicode="5" 
 />
    <glyph glyph-name="six" unicode="6" 
 />
    <glyph glyph-name="seven" unicode="7" 
 />
    <glyph glyph-name="eight" unicode="8" 
 />
    <glyph glyph-name="nine" unicode="9" 
 />
    <glyph glyph-name="colon" unicode=":" 
 />
    <glyph glyph-name="semicolon" unicode=";" 
 />
    <glyph glyph-name="less" unicode="&#x3c;" 
 />
    <glyph glyph-name="equal" unicode="=" 
 />
    <glyph glyph-name="greater" unicode="&#x3e;" 
 />
    <glyph glyph-name="question" unicode="?" 
 />
    <glyph glyph-name="at" unicode="@" 
 />
    <glyph glyph-name="A" unicode="A" horiz-adv-x="528" 
d="M80 538q0 73 53 127.5t87 54.5l20 80q24 36 40 0l20 -80q35 0 89.5 -54.5t54.5 -127.5q0 -76 -64 -138l100 -360q-24 -72 -80 -20l-40 160q-100 -72 -200 0l-40 -160q-60 -52 -80 20l108 352q-68 70 -68 146zM140 540q0 -50 35 -85t85 -35q49 0 84.5 35t35.5 85
q0 49 -35.5 84.5t-84.5 35.5q-50 0 -85 -35.5t-35 -84.5zM220 540q0 16 11.5 28t28.5 12q16 0 28 -12t12 -28q0 -17 -12 -28.5t-28 -11.5q-17 0 -28.5 11.5t-11.5 28.5zM200 280q0 -25 17.5 -42.5t42.5 -17.5q24 0 42 17.5t18 42.5q0 24 -18 42t-42 18q-25 0 -42.5 -18
t-17.5 -42z" />
    <glyph glyph-name="B" unicode="B" horiz-adv-x="544" 
d="M80 500q0 74 52.5 127t87.5 53l20 60q16 36 40 0l20 -60q34 0 87 -53t53 -87l60 -20q32 -24 0 -40l-56 -16q-4 -39 -57 -91.5t-127 -52.5q-75 0 -127.5 52.5t-52.5 127.5zM140 500q0 -50 35 -85t85 -35q49 0 84.5 35t35.5 85q0 49 -35.5 84.5t-84.5 35.5q-50 0 -85 -35.5
t-35 -84.5zM220 500q0 16 11.5 28t28.5 12q16 0 28 -12t12 -28q0 -17 -12 -28.5t-28 -11.5q-17 0 -28.5 11.5t-11.5 28.5zM40 180l60 20q0 25 47 72.5t113 47.5q65 0 112.5 -47.5t47.5 -112.5q0 -66 -47.5 -113t-112.5 -47q-66 0 -113 47t-43 77l-64 16q-40 20 0 40z
M160 160q0 -42 29 -71t71 -29q41 0 70.5 29t29.5 71q0 41 -29.5 70.5t-70.5 29.5q-42 0 -71 -29.5t-29 -70.5z" />
    <glyph glyph-name="C" unicode="C" horiz-adv-x="812" 
d="M380 380q0 16 11.5 28t28.5 12q16 0 28 -12t12 -28q0 -17 -12 -28.5t-28 -11.5q-17 0 -28.5 11.5t-11.5 28.5zM300 380q0 -50 35 -85t85 -35q49 0 84.5 35t35.5 85q0 49 -35.5 84.5t-84.5 35.5q-50 0 -85 -35.5t-35 -84.5zM240 380q0 74 24 92l-60 56q-44 -42 -44 -148
q0 -107 76.5 -183.5t163.5 -76.5q36 0 46 -12t14 -48v-40q-32 -52 -60 0v40q-112 0 -206 94t-94 226q0 131 94 225.5t226 94.5q128 12 224 -90t76 -230q0 -40 -40 -40h-80q0 -35 -53 -87.5t-127 -52.5q-75 0 -127.5 52.5t-52.5 127.5zM320 520q25 40 100 40q74 0 127 -53
t53 -87h60q8 88 -63 154t-177 66q-107 0 -160 -60z" />
    <glyph glyph-name="D" unicode="D" horiz-adv-x="580" 
d="M180 320q0 16 11.5 28t28.5 12q16 0 28 -12t12 -28q0 -17 -12 -28.5t-28 -11.5q-17 0 -28.5 11.5t-11.5 28.5zM100 320q0 -50 35 -85t85 -35q49 0 84.5 35t35.5 85q0 49 -35.5 84.5t-84.5 35.5q-50 0 -85 -35.5t-35 -84.5zM40 320q0 74 52.5 127t87.5 53v80q-4 44 40 60
q124 4 222 -92.5t98 -227.5q0 -132 -100 -226t-220 -94q-60 32 0 60q106 0 183 76.5t77 183.5q0 106 -77 183t-143 77v-80q34 0 87 -53t53 -127q0 -75 -53 -127.5t-127 -52.5q-75 0 -127.5 52.5t-52.5 127.5z" />
    <glyph glyph-name="E" unicode="E" horiz-adv-x="636" 
d="M280 320q0 16 11.5 28t28.5 12q16 0 28 -12t12 -28q0 -17 -12 -28.5t-28 -11.5q-17 0 -28.5 11.5t-11.5 28.5zM200 320q0 -50 35 -85t85 -35q49 0 84.5 35t35.5 85q0 49 -35.5 84.5t-84.5 35.5q-50 0 -85 -35.5t-35 -84.5zM60 356h84q-4 38 48.5 91t87.5 53v60
q-4 32 18 58t62 22h180q52 -44 0 -75h-160q-20 -5 -20 -25v-40q34 0 87 -53t53 -91h80q52 -36 0 -66h-80q0 -45 -53 -97.5t-87 -52.5v-40q-4 -20 20 -25h160q52 -39 0 -75h-180q-40 4 -62 28t-18 52v60q-35 0 -87.5 52.5t-52.5 97.5h-80q-48 30 0 66z" />
    <glyph glyph-name="F" unicode="F" horiz-adv-x="692" 
d="M200 540q0 16 11.5 28t28.5 12q16 0 28 -12t12 -28q0 -17 -12 -28.5t-28 -11.5q-17 0 -28.5 11.5t-11.5 28.5zM120 540q0 -50 35 -85t85 -35q49 0 84.5 35t35.5 85q0 49 -35.5 84.5t-84.5 35.5q-50 0 -85 -35.5t-35 -84.5zM60 540q0 74 52.5 127t127.5 53q74 0 127 -53
t53 -87h180q24 4 32 -4t8 -36l-120 -120q-32 -20 -60 0l-40 40q-8 -20 -57 -60t-83 -40v-40h80q60 -40 0 -75h-80v-85q68 -40 38 -66t-78 6q-52 -32 -80 -8t40 68v200q-35 0 -87.5 52.5t-52.5 127.5zM490 490l30 30h-60z" />
    <glyph glyph-name="G" unicode="G" horiz-adv-x="484" 
d="M220 480q0 16 11.5 28t28.5 12q16 0 28 -12t12 -28q0 -17 -12 -28.5t-28 -11.5q-17 0 -28.5 11.5t-11.5 28.5zM140 480q0 -50 35 -85t85 -35q49 0 84.5 35t35.5 85q0 49 -35.5 84.5t-84.5 35.5q-50 0 -85 -35.5t-35 -84.5zM80 480q0 74 52 136l-52 104q36 32 76 56
t104 24q52 0 102 -24t78 -56l-52 -104q52 -62 52 -136q0 -75 -88 -156l-192 -124l280 -140q20 -52 -40 -60l-340 180q-16 20 0 40l140 80q-28 4 -74 54.5t-46 125.5zM260 740q-64 -8 -100 -40l36 -52q24 12 64 12q28 4 64 -12l36 52q-32 32 -100 40z" />
    <glyph glyph-name="H" unicode="H" horiz-adv-x="720" 
d="M320 320q0 16 11.5 28t28.5 12q16 0 28 -12t12 -28q0 -17 -12 -28.5t-28 -11.5q-17 0 -28.5 11.5t-11.5 28.5zM240 320q0 -50 35 -85t85 -35q49 0 84.5 35t35.5 85q0 49 -35.5 84.5t-84.5 35.5q-50 0 -85 -35.5t-35 -84.5zM180 285h-80q0 -72 76.5 -148.5t123.5 -76.5
q36 -32 0 -60q-72 0 -166 94t-94 226q0 131 94 225.5t166 94.5q44 -32 0 -60q-47 0 -123.5 -77t-76.5 -158h80q0 49 52.5 102t127.5 53q74 0 127 -53t53 -102h80q0 81 -77 158t-123 77q-40 28 0 60q71 0 165.5 -94.5t94.5 -225.5q0 -132 -94.5 -226t-165.5 -94q-44 28 0 60
q46 0 123 76.5t77 148.5h-80q0 -40 -53 -92.5t-127 -52.5q-75 0 -127.5 52.5t-52.5 92.5z" />
    <glyph glyph-name="I" unicode="I" horiz-adv-x="444" 
d="M180 420q0 16 11.5 28t28.5 12q16 0 28 -12t12 -28q0 -17 -12 -28.5t-28 -11.5q-17 0 -28.5 11.5t-11.5 28.5zM100 420q0 -50 35 -85t85 -35q49 0 84.5 35t35.5 85q0 49 -35.5 84.5t-84.5 35.5q-50 0 -85 -35.5t-35 -84.5zM40 420q0 74 52.5 127t87.5 53v200q36 56 80 0
v-200q34 0 87 -53t53 -127q0 -75 -53 -127.5t-87 -52.5v-200q-44 -60 -80 0v200q-35 0 -87.5 52.5t-52.5 127.5z" />
    <glyph glyph-name="J" unicode="J" horiz-adv-x="500" 
d="M200 480q0 16 11.5 28t28.5 12q16 0 28 -12t12 -28q0 -17 -12 -28.5t-28 -11.5q-17 0 -28.5 11.5t-11.5 28.5zM120 480q0 -50 35 -85t85 -35q49 0 84.5 35t35.5 85q0 49 -35.5 84.5t-84.5 35.5q-50 0 -85 -35.5t-35 -84.5zM60 480q0 74 52.5 127t127.5 53q74 0 100 -20
l60 60q32 16 50 6t10 -46l-60 -60q20 -46 20 -120q0 -75 -53 -127.5t-87 -52.5v-180q-4 -56 -40 -88t-80 -32q-64 8 -92 46t-28 74q8 44 32 46t48 -46q0 -17 11.5 -28.5t28.5 -11.5q16 0 28 11.5t12 28.5v180q-35 0 -87.5 52.5t-52.5 127.5z" />
    <glyph glyph-name="K" unicode="K" horiz-adv-x="580" 
d="M180 420q0 16 11.5 28t28.5 12q16 0 28 -12t12 -28q0 -17 -12 -28.5t-28 -11.5q-17 0 -28.5 11.5t-11.5 28.5zM100 420q0 -50 35 -85t85 -35q49 0 84.5 35t35.5 85q0 49 -35.5 84.5t-84.5 35.5q-50 0 -85 -35.5t-35 -84.5zM40 420q0 74 52.5 127t87.5 53v200q36 56 80 0
v-200q34 0 71 -34t49 -66l100 100q40 32 56 -2t-36 -78l-100 -100l100 -100q48 -40 32 -74t-52 -6l-100 100q-8 -32 -47 -66t-73 -34v-200q-44 -60 -80 0v200q-35 0 -87.5 52.5t-52.5 127.5z" />
    <glyph glyph-name="L" unicode="L" horiz-adv-x="588" 
d="M308 480q0 -17 -11.5 -28.5t-28.5 -11.5q-16 0 -28 11.5t-12 28.5q0 16 12 28t28 12q17 0 28.5 -12t11.5 -28zM388 480q0 49 -35 84.5t-85 35.5q-49 0 -84.5 -35.5t-35.5 -84.5q0 -50 35.5 -85t84.5 -35q50 0 85 35t35 85zM448 480q0 -75 -52.5 -127.5t-87.5 -52.5
l2 -220q30 52 50 60q60 32 120 0q36 -20 46 -44t14 -56q-4 -44 -40 -40h-220q-24 8 -36 20t-14 40l-2 240q-34 0 -87 52.5t-53 127.5q0 74 20 120l-60 60q-8 36 10 46t50 -6l60 -60q26 20 100 20q75 0 127.5 -53t52.5 -127z" />
    <glyph glyph-name="M" unicode="M" horiz-adv-x="724" 
d="M320 180q0 16 11.5 28t28.5 12q16 0 28 -12t12 -28q0 -17 -12 -28.5t-28 -11.5q-17 0 -28.5 11.5t-11.5 28.5zM240 180q0 -50 35 -85t85 -35q49 0 84.5 35t35.5 85q0 49 -35.5 84.5t-84.5 35.5q-50 0 -85 -35.5t-35 -84.5zM180 180q0 74 52.5 127t87.5 53v80
q-67 0 -143.5 -77t-76.5 -183q0 -107 32 -132q12 -28 -6 -42t-46 14q-44 40 -40 160q0 131 96 224q-80 84 -46 116t102 -64q36 44 168 44q131 0 168 -48q80 96 106 64t-50 -116q96 -89 96 -220q0 -124 -40 -160q-28 -28 -54 -22t-6 42q40 33 40 140q0 106 -77 183t-143 77
v-80q34 0 87 -53t53 -127q0 -75 -53 -127.5t-127 -52.5q-75 0 -127.5 52.5t-52.5 127.5z" />
    <glyph glyph-name="N" unicode="N" horiz-adv-x="740" 
d="M320 320q0 16 11.5 28t28.5 12q16 0 28 -12t12 -28q0 -17 -12 -28.5t-28 -11.5q-17 0 -28.5 11.5t-11.5 28.5zM240 320q0 -50 35 -85t85 -35q49 0 84.5 35t35.5 85q0 49 -35.5 84.5t-84.5 35.5q-50 0 -85 -35.5t-35 -84.5zM180 320q0 74 20 100l-60 100l-40 -500
q-24 -20 -50 -2t-10 62l40 480q0 84 60 80l120 -160q25 20 100 20q74 0 127 -53t53 -127q0 -75 -20 -100l67 -95l33 502q23 20 49.5 2.5t10.5 -61.5l-32 -482q1 -84 -59 -81l-129 155q-26 -20 -100 -20q-75 0 -127.5 52.5t-52.5 127.5z" />
    <glyph glyph-name="O" unicode="O" horiz-adv-x="720" 
d="M320 320q0 16 11.5 28t28.5 12q16 0 28 -12t12 -28q0 -17 -12 -28.5t-28 -11.5q-17 0 -28.5 11.5t-11.5 28.5zM240 320q0 -50 35 -85t85 -35q49 0 84.5 35t35.5 85q0 49 -35.5 84.5t-84.5 35.5q-50 0 -85 -35.5t-35 -84.5zM180 320q0 74 52.5 127t127.5 53q74 0 127 -53
t53 -127q0 -75 -53 -127.5t-87 -52.5v-80q66 0 143 76.5t77 183.5q0 106 -77 183t-183 77q-107 0 -183.5 -77t-76.5 -183q0 -107 76.5 -183.5t143.5 -76.5v80q-35 0 -87.5 52.5t-52.5 127.5zM40 320q0 131 94 225.5t226 94.5q131 0 225.5 -94.5t94.5 -225.5
q0 -132 -94.5 -226t-225.5 -94q-132 0 -226 94t-94 226z" />
    <glyph glyph-name="P" unicode="P" horiz-adv-x="500" 
d="M308 480q0 -17 -11.5 -28.5t-28.5 -11.5q-16 0 -28 11.5t-12 28.5q0 16 12 28t28 12q17 0 28.5 -12t11.5 -28zM388 480q0 49 -35 84.5t-85 35.5q-49 0 -84.5 -35.5t-35.5 -84.5q0 -50 35.5 -85t84.5 -35q50 0 85 35t35 85zM448 480q0 -75 -52.5 -127.5t-120.5 -52.5
q-81 0 -119 36v-336q-36 -56 -68 0v480q0 74 20 120l-60 60q-8 36 10 46t50 -6l60 -60q26 20 100 20q75 0 127.5 -53t52.5 -127z" />
    <glyph glyph-name="Q" unicode="Q" horiz-adv-x="600" 
d="M180 300q0 16 11.5 28t28.5 12q16 0 28 -12t12 -28q0 -17 -12 -28.5t-28 -11.5q-17 0 -28.5 11.5t-11.5 28.5zM100 300q0 -50 35 -85t85 -35q49 0 84.5 35t35.5 85q0 49 -35.5 84.5t-84.5 35.5q-50 0 -85 -35.5t-35 -84.5zM40 300q0 74 52.5 127t127.5 53q74 0 127 -53
t53 -127q0 -75 -24 -104l64 -76l56 32q32 24 50 -2t-6 -50l-44 -48l44 -52q4 -80 -60 -40l-160 180q-26 -20 -100 -20q-75 0 -127.5 52.5t-52.5 127.5z" />
    <glyph glyph-name="R" unicode="R" horiz-adv-x="480" 
d="M268 480q0 -17 -11.5 -28.5t-28.5 -11.5q-16 0 -28 11.5t-12 28.5q0 16 12 28t28 12q17 0 28.5 -12t11.5 -28zM348 480q0 49 -35 84.5t-85 35.5q-49 0 -84.5 -35.5t-35.5 -84.5q0 -50 35.5 -85t84.5 -35q50 0 85 35t35 85zM408 480q0 -75 -28 -116l60 -64q12 -52 -40 -40
l-60 60q-37 -20 -105 -20q-81 0 -119 36v-336q-36 -56 -68 0v480q0 74 53 127t127 53q75 0 127.5 -53t52.5 -127z" />
    <glyph glyph-name="S" unicode="S" horiz-adv-x="544" 
d="M240 380q0 16 11.5 28t28.5 12q16 0 28 -12t12 -28q0 -17 -12 -28.5t-28 -11.5q-17 0 -28.5 11.5t-11.5 28.5zM160 380q0 -50 35 -85t85 -35q49 0 84.5 35t35.5 85q0 49 -35.5 84.5t-84.5 35.5q-50 0 -85 -35.5t-35 -84.5zM100 380q0 74 32 112l-56 48q-60 36 -4 88
q76 72 168 72q4 92 34 80t26 -100q4 -40 -20 -40q-107 0 -160 -60l60 -60q25 40 100 40q74 0 127 -53t53 -127q0 -75 -40 -100l60 -60q56 -36 0 -80q-69 -80 -160 -80q-4 -68 -32 -72t-28 92q-8 40 20 40q106 0 160 60l-60 60q-26 -40 -100 -40q-75 0 -127.5 52.5
t-52.5 127.5z" />
    <glyph glyph-name="T" unicode="T" horiz-adv-x="556" 
d="M240 180q0 16 11.5 28t28.5 12q16 0 28 -12t12 -28q0 -17 -12 -28.5t-28 -11.5q-17 0 -28.5 11.5t-11.5 28.5zM160 180q0 -50 35 -85t85 -35q49 0 84.5 35t35.5 85q0 49 -35.5 84.5t-84.5 35.5q-50 0 -85 -35.5t-35 -84.5zM100 180q0 74 52.5 127t87.5 53v120h-160
q-60 40 0 80h400q60 -44 0 -80h-160v-120q34 0 87 -53t53 -127q0 -75 -53 -127.5t-127 -52.5q-75 0 -127.5 52.5t-52.5 127.5z" />
    <glyph glyph-name="U" unicode="U" horiz-adv-x="720" 
d="M320 320q0 16 11.5 28t28.5 12q16 0 28 -12t12 -28q0 -17 -12 -28.5t-28 -11.5q-17 0 -28.5 11.5t-11.5 28.5zM240 320q0 -50 35 -85t85 -35q49 0 84.5 35t35.5 85q0 49 -35.5 84.5t-84.5 35.5q-50 0 -85 -35.5t-35 -84.5zM180 320q0 74 52.5 127t127.5 53q74 0 127 -53
t53 -127q0 -75 -20 -100l40 -40q60 33 60 140q32 48 60 0q0 -132 -94.5 -226t-225.5 -94q-132 0 -226 94t-94 226q28 48 60 0q0 -107 60 -140l40 40q-20 25 -20 100zM200 120q53 -60 120 -60v80q-35 0 -80 40zM480 180q-46 -40 -80 -40v-80q84 20 120 60z" />
    <glyph glyph-name="V" unicode="V" horiz-adv-x="660" 
d="M483 189q2 -73 -50 -128.5t-133 -60.5q-69 1 -124.5 54.5t-57.5 126.5q-2 76 62 154q-120 49 -140 225q-12 176 260 160l200 -20q128 92 124 40t-60 -92l-4 -88q-20 -176 -148 -225q69 -70 71 -146zM423 186q-1 50 -37 84t-86 33t-84.5 -37t-33.5 -86q1 -49 37.5 -83.5
t86.5 -33.5t84 37.5t33 85.5zM343 184q1 -16 -10.5 -28.5t-28.5 -12.5t-29 11.5t-13 27.5q0 17 11.5 29t28.5 12t29 -11t12 -28zM484 559q-4 57 -64 67t-120 14q-80 -4 -134 -14t-50 -76q1 -74 57 -126t131 -52q80 1 133 56.5t47 130.5z" />
    <glyph glyph-name="W" unicode="W" horiz-adv-x="604" 
d="M260 180q0 16 11.5 28t28.5 12q16 0 28 -12t12 -28q0 -17 -12 -28.5t-28 -11.5q-17 0 -28.5 11.5t-11.5 28.5zM180 180q0 -50 35 -85t85 -35q49 0 84.5 35t35.5 85q0 49 -35.5 84.5t-84.5 35.5q-50 0 -85 -35.5t-35 -84.5zM120 180q0 74 24 88q-104 60 -104 192
q40 72 80 0q-8 -76 80 -140q25 40 60 40v220q36 60 80 0v-220q34 0 80 -40q68 64 60 140q40 72 80 0q0 -132 -96 -196q16 -10 16 -84q0 -75 -53 -127.5t-127 -52.5q-75 0 -127.5 52.5t-52.5 127.5z" />
    <glyph glyph-name="X" unicode="X" horiz-adv-x="584" 
d="M269 284q11 11 28.5 11.5t29.5 -11.5q11 -11 11 -28.5t-12 -29.5t-29 -11.5t-28 12.5q-12 12 -12 28.5t12 28.5zM213 341q-36 -35 -36 -85t35 -86q35 -35 85 -35.5t86 35.5q35 34 35 85t-35 85q-35 36 -85.5 35.5t-84.5 -34.5zM142 355l-85 85q-22 74 57 57l85 -85
q24 24 99 24t100 -25l85 85q68 11 56 -57l-85 -85q24 -24 24 -99.5t-25 -99.5l85 -85q8 -71 -57 -56l-84 85q-25 -25 -100 -24.5t-99 25.5l-85 -85q-68 -11 -57 57l85 84q-24 25 -24 100t25 99z" />
    <glyph glyph-name="Y" unicode="Y" 
d="M200 460q0 16 11.5 28t28.5 12q16 0 28 -12t12 -28q0 -17 -12 -28.5t-28 -11.5q-17 0 -28.5 11.5t-11.5 28.5zM120 460q0 -50 35 -85t85 -35q49 0 84.5 35t35.5 85q0 49 -35.5 84.5t-84.5 35.5q-50 0 -85 -35.5t-35 -84.5zM60 460q0 74 20 100q-100 88 -70 116t122 -64
q33 28 108 28q74 0 96 -24q76 84 114 54t-50 -110q20 -26 20 -100q8 -72 -49 -126t-91 -54v-200q68 -40 38 -66t-78 6q-52 -32 -80 -8t40 68v200q-35 0 -87.5 52.5t-52.5 127.5z" />
    <glyph glyph-name="Z" unicode="Z" horiz-adv-x="596" 
d="M283 311q-13 10 -15.5 26.5t7.5 30.5q10 13 27 15.5t30 -7.5q14 -10 16 -27t-8 -30q-10 -14 -27 -16t-30 8zM235 247q40 -30 89.5 -23t79.5 47q29 39 22.5 89t-46.5 80q-39 29 -89 22t-80 -46q-30 -40 -22.5 -89.5t46.5 -79.5zM199 199q-59 45 -70 119t34 134
q45 59 104 72l-143 108q-92 16 -88 44t92 28q229 -172 288 -216q60 -45 70 -119.5t-34 -133.5q-45 -60 -104 -72l127 -96q73 -3 75 -35t-79 -37z" />
    <glyph glyph-name="bracketleft" unicode="[" 
 />
    <glyph glyph-name="backslash" unicode="\" 
 />
    <glyph glyph-name="bracketright" unicode="]" 
 />
    <glyph glyph-name="asciicircum" unicode="^" 
 />
    <glyph glyph-name="underscore" unicode="_" 
 />
    <glyph glyph-name="grave" unicode="`" 
 />
    <glyph glyph-name="a" unicode="a" horiz-adv-x="524" 
d="M80 538q0 73 53 127.5t87 54.5l20 80q24 36 40 0l20 -80q35 0 89.5 -54.5t54.5 -127.5q0 -76 -64 -138l100 -360q-24 -72 -80 -20l-40 160q-100 -72 -200 0l-40 -160q-60 -52 -80 20l108 352q-68 70 -68 146zM140 540q0 -50 35 -85t85 -35q49 0 84.5 35t35.5 85
q0 49 -35.5 84.5t-84.5 35.5q-50 0 -85 -35.5t-35 -84.5zM220 540q0 16 11.5 28t28.5 12q16 0 28 -12t12 -28q0 -17 -12 -28.5t-28 -11.5q-17 0 -28.5 11.5t-11.5 28.5zM200 280q0 -25 17.5 -42.5t42.5 -17.5q24 0 42 17.5t18 42.5q0 24 -18 42t-42 18q-25 0 -42.5 -18
t-17.5 -42z" />
    <glyph glyph-name="b" unicode="b" horiz-adv-x="536" 
d="M80 500q0 74 52.5 127t87.5 53l20 60q16 36 40 0l20 -60q34 0 87 -53t53 -87l60 -20q32 -24 0 -40l-56 -16q-4 -39 -57 -91.5t-127 -52.5q-75 0 -127.5 52.5t-52.5 127.5zM140 500q0 -50 35 -85t85 -35q49 0 84.5 35t35.5 85q0 49 -35.5 84.5t-84.5 35.5q-50 0 -85 -35.5
t-35 -84.5zM220 500q0 16 11.5 28t28.5 12q16 0 28 -12t12 -28q0 -17 -12 -28.5t-28 -11.5q-17 0 -28.5 11.5t-11.5 28.5zM40 180l60 20q0 25 47 72.5t113 47.5q65 0 112.5 -47.5t47.5 -112.5q0 -66 -47.5 -113t-112.5 -47q-66 0 -113 47t-43 77l-64 16q-40 20 0 40z
M160 160q0 -42 29 -71t71 -29q41 0 70.5 29t29.5 71q0 41 -29.5 70.5t-70.5 29.5q-42 0 -71 -29.5t-29 -70.5z" />
    <glyph glyph-name="c" unicode="c" horiz-adv-x="812" 
d="M380 380q0 16 11.5 28t28.5 12q16 0 28 -12t12 -28q0 -17 -12 -28.5t-28 -11.5q-17 0 -28.5 11.5t-11.5 28.5zM300 380q0 -50 35 -85t85 -35q49 0 84.5 35t35.5 85q0 49 -35.5 84.5t-84.5 35.5q-50 0 -85 -35.5t-35 -84.5zM240 380q0 74 24 92l-60 56q-44 -42 -44 -148
q0 -107 76.5 -183.5t163.5 -76.5q36 0 46 -12t14 -48v-40q-32 -52 -60 0v40q-112 0 -206 94t-94 226q0 131 94 225.5t226 94.5q128 12 224 -90t76 -230q0 -40 -40 -40h-80q0 -35 -53 -87.5t-127 -52.5q-75 0 -127.5 52.5t-52.5 127.5zM320 520q25 40 100 40q74 0 127 -53
t53 -87h60q8 88 -63 154t-177 66q-107 0 -160 -60z" />
    <glyph glyph-name="d" unicode="d" horiz-adv-x="580" 
d="M180 320q0 16 11.5 28t28.5 12q16 0 28 -12t12 -28q0 -17 -12 -28.5t-28 -11.5q-17 0 -28.5 11.5t-11.5 28.5zM100 320q0 -50 35 -85t85 -35q49 0 84.5 35t35.5 85q0 49 -35.5 84.5t-84.5 35.5q-50 0 -85 -35.5t-35 -84.5zM40 320q0 74 52.5 127t87.5 53v80q-4 44 40 60
q124 4 222 -92.5t98 -227.5q0 -132 -100 -226t-220 -94q-60 32 0 60q106 0 183 76.5t77 183.5q0 106 -77 183t-143 77v-80q34 0 87 -53t53 -127q0 -75 -53 -127.5t-127 -52.5q-75 0 -127.5 52.5t-52.5 127.5z" />
    <glyph glyph-name="e" unicode="e" horiz-adv-x="644" 
d="M280 320q0 16 11.5 28t28.5 12q16 0 28 -12t12 -28q0 -17 -12 -28.5t-28 -11.5q-17 0 -28.5 11.5t-11.5 28.5zM200 320q0 -50 35 -85t85 -35q49 0 84.5 35t35.5 85q0 49 -35.5 84.5t-84.5 35.5q-50 0 -85 -35.5t-35 -84.5zM60 356h84q-4 38 48.5 91t87.5 53v60
q-4 32 18 58t62 22h180q52 -44 0 -75h-160q-20 -5 -20 -25v-40q34 0 87 -53t53 -91h80q52 -36 0 -66h-80q0 -45 -53 -97.5t-87 -52.5v-40q-4 -20 20 -25h160q52 -39 0 -75h-180q-40 4 -62 28t-18 52v60q-35 0 -87.5 52.5t-52.5 97.5h-80q-48 30 0 66z" />
    <glyph glyph-name="f" unicode="f" horiz-adv-x="688" 
d="M200 540q0 16 11.5 28t28.5 12q16 0 28 -12t12 -28q0 -17 -12 -28.5t-28 -11.5q-17 0 -28.5 11.5t-11.5 28.5zM120 540q0 -50 35 -85t85 -35q49 0 84.5 35t35.5 85q0 49 -35.5 84.5t-84.5 35.5q-50 0 -85 -35.5t-35 -84.5zM60 540q0 74 52.5 127t127.5 53q74 0 127 -53
t53 -87h180q24 4 32 -4t8 -36l-120 -120q-32 -20 -60 0l-40 40q-8 -20 -57 -60t-83 -40v-40h80q60 -40 0 -75h-80v-85q68 -40 38 -66t-78 6q-52 -32 -80 -8t40 68v200q-35 0 -87.5 52.5t-52.5 127.5zM490 490l30 30h-60z" />
    <glyph glyph-name="g" unicode="g" horiz-adv-x="484" 
d="M220 480q0 16 11.5 28t28.5 12q16 0 28 -12t12 -28q0 -17 -12 -28.5t-28 -11.5q-17 0 -28.5 11.5t-11.5 28.5zM140 480q0 -50 35 -85t85 -35q49 0 84.5 35t35.5 85q0 49 -35.5 84.5t-84.5 35.5q-50 0 -85 -35.5t-35 -84.5zM80 480q0 74 52 136l-52 104q36 32 76 56
t104 24q52 0 102 -24t78 -56l-52 -104q52 -62 52 -136q0 -75 -88 -156l-192 -124l280 -140q20 -52 -40 -60l-340 180q-16 20 0 40l140 80q-28 4 -74 54.5t-46 125.5zM260 740q-64 -8 -100 -40l36 -52q24 12 64 12q28 4 64 -12l36 52q-32 32 -100 40z" />
    <glyph glyph-name="h" unicode="h" horiz-adv-x="724" 
d="M320 320q0 16 11.5 28t28.5 12q16 0 28 -12t12 -28q0 -17 -12 -28.5t-28 -11.5q-17 0 -28.5 11.5t-11.5 28.5zM240 320q0 -50 35 -85t85 -35q49 0 84.5 35t35.5 85q0 49 -35.5 84.5t-84.5 35.5q-50 0 -85 -35.5t-35 -84.5zM180 285h-80q0 -72 76.5 -148.5t123.5 -76.5
q36 -32 0 -60q-72 0 -166 94t-94 226q0 131 94 225.5t166 94.5q44 -32 0 -60q-47 0 -123.5 -77t-76.5 -158h80q0 49 52.5 102t127.5 53q74 0 127 -53t53 -102h80q0 81 -77 158t-123 77q-40 28 0 60q71 0 165.5 -94.5t94.5 -225.5q0 -132 -94.5 -226t-165.5 -94q-44 28 0 60
q46 0 123 76.5t77 148.5h-80q0 -40 -53 -92.5t-127 -52.5q-75 0 -127.5 52.5t-52.5 92.5z" />
    <glyph glyph-name="i" unicode="i" horiz-adv-x="444" 
d="M180 420q0 16 11.5 28t28.5 12q16 0 28 -12t12 -28q0 -17 -12 -28.5t-28 -11.5q-17 0 -28.5 11.5t-11.5 28.5zM100 420q0 -50 35 -85t85 -35q49 0 84.5 35t35.5 85q0 49 -35.5 84.5t-84.5 35.5q-50 0 -85 -35.5t-35 -84.5zM40 420q0 74 52.5 127t87.5 53v200q36 56 80 0
v-200q34 0 87 -53t53 -127q0 -75 -53 -127.5t-87 -52.5v-200q-44 -60 -80 0v200q-35 0 -87.5 52.5t-52.5 127.5z" />
    <glyph glyph-name="j" unicode="j" horiz-adv-x="500" 
d="M200 480q0 16 11.5 28t28.5 12q16 0 28 -12t12 -28q0 -17 -12 -28.5t-28 -11.5q-17 0 -28.5 11.5t-11.5 28.5zM120 480q0 -50 35 -85t85 -35q49 0 84.5 35t35.5 85q0 49 -35.5 84.5t-84.5 35.5q-50 0 -85 -35.5t-35 -84.5zM60 480q0 74 52.5 127t127.5 53q74 0 100 -20
l60 60q32 16 50 6t10 -46l-60 -60q20 -46 20 -120q0 -75 -53 -127.5t-87 -52.5v-180q-4 -56 -40 -88t-80 -32q-64 8 -92 46t-28 74q8 44 32 46t48 -46q0 -17 11.5 -28.5t28.5 -11.5q16 0 28 11.5t12 28.5v180q-35 0 -87.5 52.5t-52.5 127.5z" />
    <glyph glyph-name="k" unicode="k" horiz-adv-x="580" 
d="M180 420q0 16 11.5 28t28.5 12q16 0 28 -12t12 -28q0 -17 -12 -28.5t-28 -11.5q-17 0 -28.5 11.5t-11.5 28.5zM100 420q0 -50 35 -85t85 -35q49 0 84.5 35t35.5 85q0 49 -35.5 84.5t-84.5 35.5q-50 0 -85 -35.5t-35 -84.5zM40 420q0 74 52.5 127t87.5 53v200q36 56 80 0
v-200q34 0 71 -34t49 -66l100 100q40 32 56 -2t-36 -78l-100 -100l100 -100q48 -40 32 -74t-52 -6l-100 100q-8 -32 -47 -66t-73 -34v-200q-44 -60 -80 0v200q-35 0 -87.5 52.5t-52.5 127.5z" />
    <glyph glyph-name="l" unicode="l" horiz-adv-x="584" 
d="M308 480q0 -17 -11.5 -28.5t-28.5 -11.5q-16 0 -28 11.5t-12 28.5q0 16 12 28t28 12q17 0 28.5 -12t11.5 -28zM388 480q0 49 -35 84.5t-85 35.5q-49 0 -84.5 -35.5t-35.5 -84.5q0 -50 35.5 -85t84.5 -35q50 0 85 35t35 85zM448 480q0 -75 -52.5 -127.5t-87.5 -52.5
l2 -220q30 52 50 60q60 32 120 0q36 -20 46 -44t14 -56q-4 -44 -40 -40h-220q-24 8 -36 20t-14 40l-2 240q-34 0 -87 52.5t-53 127.5q0 74 20 120l-60 60q-8 36 10 46t50 -6l60 -60q26 20 100 20q75 0 127.5 -53t52.5 -127z" />
    <glyph glyph-name="m" unicode="m" horiz-adv-x="720" 
d="M320 180q0 16 11.5 28t28.5 12q16 0 28 -12t12 -28q0 -17 -12 -28.5t-28 -11.5q-17 0 -28.5 11.5t-11.5 28.5zM240 180q0 -50 35 -85t85 -35q49 0 84.5 35t35.5 85q0 49 -35.5 84.5t-84.5 35.5q-50 0 -85 -35.5t-35 -84.5zM180 180q0 74 52.5 127t87.5 53v80
q-67 0 -143.5 -77t-76.5 -183q0 -107 32 -132q12 -28 -6 -42t-46 14q-44 40 -40 160q0 131 96 224q-80 84 -46 116t102 -64q36 44 168 44q131 0 168 -48q80 96 106 64t-50 -116q96 -89 96 -220q0 -124 -40 -160q-28 -28 -54 -22t-6 42q40 33 40 140q0 106 -77 183t-143 77
v-80q34 0 87 -53t53 -127q0 -75 -53 -127.5t-127 -52.5q-75 0 -127.5 52.5t-52.5 127.5z" />
    <glyph glyph-name="n" unicode="n" horiz-adv-x="736" 
d="M320 320q0 16 11.5 28t28.5 12q16 0 28 -12t12 -28q0 -17 -12 -28.5t-28 -11.5q-17 0 -28.5 11.5t-11.5 28.5zM240 320q0 -50 35 -85t85 -35q49 0 84.5 35t35.5 85q0 49 -35.5 84.5t-84.5 35.5q-50 0 -85 -35.5t-35 -84.5zM180 320q0 74 20 100l-60 100l-40 -500
q-24 -20 -50 -2t-10 62l40 480q0 84 60 80l120 -160q25 20 100 20q74 0 127 -53t53 -127q0 -75 -20 -100l67 -95l33 502q23 20 49.5 2.5t10.5 -61.5l-32 -482q1 -84 -59 -81l-129 155q-26 -20 -100 -20q-75 0 -127.5 52.5t-52.5 127.5z" />
    <glyph glyph-name="o" unicode="o" horiz-adv-x="720" 
d="M320 320q0 16 11.5 28t28.5 12q16 0 28 -12t12 -28q0 -17 -12 -28.5t-28 -11.5q-17 0 -28.5 11.5t-11.5 28.5zM240 320q0 -50 35 -85t85 -35q49 0 84.5 35t35.5 85q0 49 -35.5 84.5t-84.5 35.5q-50 0 -85 -35.5t-35 -84.5zM180 320q0 74 52.5 127t127.5 53q74 0 127 -53
t53 -127q0 -75 -53 -127.5t-87 -52.5v-80q66 0 143 76.5t77 183.5q0 106 -77 183t-183 77q-107 0 -183.5 -77t-76.5 -183q0 -107 76.5 -183.5t143.5 -76.5v80q-35 0 -87.5 52.5t-52.5 127.5zM40 320q0 131 94 225.5t226 94.5q131 0 225.5 -94.5t94.5 -225.5
q0 -132 -94.5 -226t-225.5 -94q-132 0 -226 94t-94 226z" />
    <glyph glyph-name="p" unicode="p" horiz-adv-x="504" 
d="M308 480q0 -17 -11.5 -28.5t-28.5 -11.5q-16 0 -28 11.5t-12 28.5q0 16 12 28t28 12q17 0 28.5 -12t11.5 -28zM388 480q0 49 -35 84.5t-85 35.5q-49 0 -84.5 -35.5t-35.5 -84.5q0 -50 35.5 -85t84.5 -35q50 0 85 35t35 85zM448 480q0 -75 -52.5 -127.5t-120.5 -52.5
q-81 0 -119 36v-336q-36 -56 -68 0v480q0 74 20 120l-60 60q-8 36 10 46t50 -6l60 -60q26 20 100 20q75 0 127.5 -53t52.5 -127z" />
    <glyph glyph-name="q" unicode="q" horiz-adv-x="600" 
d="M180 300q0 16 11.5 28t28.5 12q16 0 28 -12t12 -28q0 -17 -12 -28.5t-28 -11.5q-17 0 -28.5 11.5t-11.5 28.5zM100 300q0 -50 35 -85t85 -35q49 0 84.5 35t35.5 85q0 49 -35.5 84.5t-84.5 35.5q-50 0 -85 -35.5t-35 -84.5zM40 300q0 74 52.5 127t127.5 53q74 0 127 -53
t53 -127q0 -75 -24 -104l64 -76l56 32q32 24 50 -2t-6 -50l-44 -48l44 -52q4 -80 -60 -40l-160 180q-26 -20 -100 -20q-75 0 -127.5 52.5t-52.5 127.5z" />
    <glyph glyph-name="r" unicode="r" horiz-adv-x="480" 
d="M268 480q0 -17 -11.5 -28.5t-28.5 -11.5q-16 0 -28 11.5t-12 28.5q0 16 12 28t28 12q17 0 28.5 -12t11.5 -28zM348 480q0 49 -35 84.5t-85 35.5q-49 0 -84.5 -35.5t-35.5 -84.5q0 -50 35.5 -85t84.5 -35q50 0 85 35t35 85zM408 480q0 -75 -28 -116l60 -64q12 -52 -40 -40
l-60 60q-37 -20 -105 -20q-81 0 -119 36v-336q-36 -56 -68 0v480q0 74 53 127t127 53q75 0 127.5 -53t52.5 -127z" />
    <glyph glyph-name="s" unicode="s" horiz-adv-x="540" 
d="M240 380q0 16 11.5 28t28.5 12q16 0 28 -12t12 -28q0 -17 -12 -28.5t-28 -11.5q-17 0 -28.5 11.5t-11.5 28.5zM160 380q0 -50 35 -85t85 -35q49 0 84.5 35t35.5 85q0 49 -35.5 84.5t-84.5 35.5q-50 0 -85 -35.5t-35 -84.5zM100 380q0 74 32 112l-56 48q-60 36 -4 88
q76 72 168 72q4 92 34 80t26 -100q4 -40 -20 -40q-107 0 -160 -60l60 -60q25 40 100 40q74 0 127 -53t53 -127q0 -75 -40 -100l60 -60q56 -36 0 -80q-69 -80 -160 -80q-4 -68 -32 -72t-28 92q-8 40 20 40q106 0 160 60l-60 60q-26 -40 -100 -40q-75 0 -127.5 52.5
t-52.5 127.5z" />
    <glyph glyph-name="t" unicode="t" horiz-adv-x="560" 
d="M240 180q0 16 11.5 28t28.5 12q16 0 28 -12t12 -28q0 -17 -12 -28.5t-28 -11.5q-17 0 -28.5 11.5t-11.5 28.5zM160 180q0 -50 35 -85t85 -35q49 0 84.5 35t35.5 85q0 49 -35.5 84.5t-84.5 35.5q-50 0 -85 -35.5t-35 -84.5zM100 180q0 74 52.5 127t87.5 53v120h-160
q-60 40 0 80h400q60 -44 0 -80h-160v-120q34 0 87 -53t53 -127q0 -75 -53 -127.5t-127 -52.5q-75 0 -127.5 52.5t-52.5 127.5z" />
    <glyph glyph-name="u" unicode="u" horiz-adv-x="720" 
d="M320 320q0 16 11.5 28t28.5 12q16 0 28 -12t12 -28q0 -17 -12 -28.5t-28 -11.5q-17 0 -28.5 11.5t-11.5 28.5zM240 320q0 -50 35 -85t85 -35q49 0 84.5 35t35.5 85q0 49 -35.5 84.5t-84.5 35.5q-50 0 -85 -35.5t-35 -84.5zM180 320q0 74 52.5 127t127.5 53q74 0 127 -53
t53 -127q0 -75 -20 -100l40 -40q60 33 60 140q32 48 60 0q0 -132 -94.5 -226t-225.5 -94q-132 0 -226 94t-94 226q28 48 60 0q0 -107 60 -140l40 40q-20 25 -20 100zM200 120q53 -60 120 -60v80q-35 0 -80 40zM480 180q-46 -40 -80 -40v-80q84 20 120 60z" />
    <glyph glyph-name="v" unicode="v" horiz-adv-x="664" 
d="M483 189q2 -73 -50 -128.5t-133 -60.5q-69 1 -124.5 54.5t-57.5 126.5q-2 76 62 154q-120 49 -140 225q-12 176 260 160l200 -20q128 92 124 40t-60 -92l-4 -88q-20 -176 -148 -225q69 -70 71 -146zM423 186q-1 50 -37 84t-86 33t-84.5 -37t-33.5 -86q1 -49 37.5 -83.5
t86.5 -33.5t84 37.5t33 85.5zM343 184q1 -16 -10.5 -28.5t-28.5 -12.5t-29 11.5t-13 27.5q0 17 11.5 29t28.5 12t29 -11t12 -28zM484 559q-4 57 -64 67t-120 14q-80 -4 -134 -14t-50 -76q1 -74 57 -126t131 -52q80 1 133 56.5t47 130.5z" />
    <glyph glyph-name="w" unicode="w" horiz-adv-x="600" 
d="M260 180q0 16 11.5 28t28.5 12q16 0 28 -12t12 -28q0 -17 -12 -28.5t-28 -11.5q-17 0 -28.5 11.5t-11.5 28.5zM180 180q0 -50 35 -85t85 -35q49 0 84.5 35t35.5 85q0 49 -35.5 84.5t-84.5 35.5q-50 0 -85 -35.5t-35 -84.5zM120 180q0 74 24 88q-104 60 -104 192
q40 72 80 0q-8 -76 80 -140q25 40 60 40v220q36 60 80 0v-220q34 0 80 -40q68 64 60 140q40 72 80 0q0 -132 -96 -196q16 -10 16 -84q0 -75 -53 -127.5t-127 -52.5q-75 0 -127.5 52.5t-52.5 127.5z" />
    <glyph glyph-name="x" unicode="x" horiz-adv-x="580" 
d="M269 284q11 11 28.5 11.5t29.5 -11.5q11 -11 11 -28.5t-12 -29.5t-29 -11.5t-28 12.5q-12 12 -12 28.5t12 28.5zM213 341q-36 -35 -36 -85t35 -86q35 -35 85 -35.5t86 35.5q35 34 35 85t-35 85q-35 36 -85.5 35.5t-84.5 -34.5zM142 355l-85 85q-22 74 57 57l85 -85
q24 24 99 24t100 -25l85 85q68 11 56 -57l-85 -85q24 -24 24 -99.5t-25 -99.5l85 -85q8 -71 -57 -56l-84 85q-25 -25 -100 -24.5t-99 25.5l-85 -85q-68 -11 -57 57l85 84q-24 25 -24 100t25 99z" />
    <glyph glyph-name="y" unicode="y" 
d="M200 460q0 16 11.5 28t28.5 12q16 0 28 -12t12 -28q0 -17 -12 -28.5t-28 -11.5q-17 0 -28.5 11.5t-11.5 28.5zM120 460q0 -50 35 -85t85 -35q49 0 84.5 35t35.5 85q0 49 -35.5 84.5t-84.5 35.5q-50 0 -85 -35.5t-35 -84.5zM60 460q0 74 20 100q-100 88 -70 116t122 -64
q33 28 108 28q74 0 96 -24q76 84 114 54t-50 -110q20 -26 20 -100q8 -72 -49 -126t-91 -54v-200q68 -40 38 -66t-78 6q-52 -32 -80 -8t40 68v200q-35 0 -87.5 52.5t-52.5 127.5z" />
    <glyph glyph-name="z" unicode="z" horiz-adv-x="600" 
d="M283 311q-13 10 -15.5 26.5t7.5 30.5q10 13 27 15.5t30 -7.5q14 -10 16 -27t-8 -30q-10 -14 -27 -16t-30 8zM235 247q40 -30 89.5 -23t79.5 47q29 39 22.5 89t-46.5 80q-39 29 -89 22t-80 -46q-30 -40 -22.5 -89.5t46.5 -79.5zM199 199q-59 45 -70 119t34 134
q45 59 104 72l-143 108q-92 16 -88 44t92 28q229 -172 288 -216q60 -45 70 -119.5t-34 -133.5q-45 -60 -104 -72l127 -96q73 -3 75 -35t-79 -37z" />
    <glyph glyph-name="braceleft" unicode="{" 
 />
    <glyph glyph-name="bar" unicode="|" 
 />
    <glyph glyph-name="braceright" unicode="}" 
 />
    <glyph glyph-name="asciitilde" unicode="~" 
 />
    <glyph glyph-name="uni00A0" unicode="&#xa0;" 
 />
    <glyph glyph-name="exclamdown" unicode="&#xa1;" 
 />
    <glyph glyph-name="cent" unicode="&#xa2;" 
 />
    <glyph glyph-name="sterling" unicode="&#xa3;" 
 />
    <glyph glyph-name="currency" unicode="&#xa4;" 
 />
    <glyph glyph-name="yen" unicode="&#xa5;" 
 />
    <glyph glyph-name="brokenbar" unicode="&#xa6;" 
 />
    <glyph glyph-name="section" unicode="&#xa7;" 
 />
    <glyph glyph-name="dieresis" unicode="&#xa8;" 
 />
    <glyph glyph-name="copyright" unicode="&#xa9;" 
 />
    <glyph glyph-name="ordfeminine" unicode="&#xaa;" 
 />
    <glyph glyph-name="guillemotleft" unicode="&#xab;" 
 />
    <glyph glyph-name="logicalnot" unicode="&#xac;" 
 />
    <glyph glyph-name="uni00AD" unicode="&#xad;" 
 />
    <glyph glyph-name="registered" unicode="&#xae;" 
 />
    <glyph glyph-name="macron" unicode="&#xaf;" 
 />
    <glyph glyph-name="degree" unicode="&#xb0;" 
 />
    <glyph glyph-name="plusminus" unicode="&#xb1;" 
 />
    <glyph glyph-name="uni00B2" unicode="&#xb2;" 
 />
    <glyph glyph-name="uni00B3" unicode="&#xb3;" 
 />
    <glyph glyph-name="acute" unicode="&#xb4;" 
 />
    <glyph glyph-name="uni00B5" unicode="&#xb5;" 
 />
    <glyph glyph-name="paragraph" unicode="&#xb6;" 
 />
    <glyph glyph-name="periodcentered" unicode="&#xb7;" 
 />
    <glyph glyph-name="cedilla" unicode="&#xb8;" 
 />
    <glyph glyph-name="uni00B9" unicode="&#xb9;" 
 />
    <glyph glyph-name="ordmasculine" unicode="&#xba;" 
 />
    <glyph glyph-name="guillemotright" unicode="&#xbb;" 
 />
    <glyph glyph-name="onequarter" unicode="&#xbc;" 
 />
    <glyph glyph-name="onehalf" unicode="&#xbd;" 
 />
    <glyph glyph-name="threequarters" unicode="&#xbe;" 
 />
    <glyph glyph-name="questiondown" unicode="&#xbf;" 
 />
    <glyph glyph-name="Agrave" unicode="&#xc0;" 
 />
    <glyph glyph-name="Aacute" unicode="&#xc1;" 
 />
    <glyph glyph-name="Acircumflex" unicode="&#xc2;" 
 />
    <glyph glyph-name="Atilde" unicode="&#xc3;" 
 />
    <glyph glyph-name="Adieresis" unicode="&#xc4;" 
 />
    <glyph glyph-name="Aring" unicode="&#xc5;" 
 />
    <glyph glyph-name="AE" unicode="&#xc6;" 
 />
    <glyph glyph-name="Ccedilla" unicode="&#xc7;" 
 />
    <glyph glyph-name="Egrave" unicode="&#xc8;" 
 />
    <glyph glyph-name="Eacute" unicode="&#xc9;" 
 />
    <glyph glyph-name="Ecircumflex" unicode="&#xca;" 
 />
    <glyph glyph-name="Edieresis" unicode="&#xcb;" 
 />
    <glyph glyph-name="Igrave" unicode="&#xcc;" 
 />
    <glyph glyph-name="Iacute" unicode="&#xcd;" 
 />
    <glyph glyph-name="Icircumflex" unicode="&#xce;" 
 />
    <glyph glyph-name="Idieresis" unicode="&#xcf;" 
 />
    <glyph glyph-name="Eth" unicode="&#xd0;" 
 />
    <glyph glyph-name="Ntilde" unicode="&#xd1;" 
 />
    <glyph glyph-name="Ograve" unicode="&#xd2;" 
 />
    <glyph glyph-name="Oacute" unicode="&#xd3;" 
 />
    <glyph glyph-name="Ocircumflex" unicode="&#xd4;" 
 />
    <glyph glyph-name="Otilde" unicode="&#xd5;" 
 />
    <glyph glyph-name="Odieresis" unicode="&#xd6;" 
 />
    <glyph glyph-name="multiply" unicode="&#xd7;" 
 />
    <glyph glyph-name="Oslash" unicode="&#xd8;" 
 />
    <glyph glyph-name="Ugrave" unicode="&#xd9;" 
 />
    <glyph glyph-name="Uacute" unicode="&#xda;" 
 />
    <glyph glyph-name="Ucircumflex" unicode="&#xdb;" 
 />
    <glyph glyph-name="Udieresis" unicode="&#xdc;" 
 />
    <glyph glyph-name="Yacute" unicode="&#xdd;" 
 />
    <glyph glyph-name="Thorn" unicode="&#xde;" 
 />
    <glyph glyph-name="germandbls" unicode="&#xdf;" 
 />
    <glyph glyph-name="agrave" unicode="&#xe0;" 
 />
    <glyph glyph-name="aacute" unicode="&#xe1;" 
 />
    <glyph glyph-name="acircumflex" unicode="&#xe2;" 
 />
    <glyph glyph-name="atilde" unicode="&#xe3;" 
 />
    <glyph glyph-name="adieresis" unicode="&#xe4;" 
 />
    <glyph glyph-name="aring" unicode="&#xe5;" 
 />
    <glyph glyph-name="ae" unicode="&#xe6;" 
 />
    <glyph glyph-name="ccedilla" unicode="&#xe7;" 
 />
    <glyph glyph-name="egrave" unicode="&#xe8;" 
 />
    <glyph glyph-name="eacute" unicode="&#xe9;" 
 />
    <glyph glyph-name="ecircumflex" unicode="&#xea;" 
 />
    <glyph glyph-name="edieresis" unicode="&#xeb;" 
 />
    <glyph glyph-name="igrave" unicode="&#xec;" 
 />
    <glyph glyph-name="iacute" unicode="&#xed;" 
 />
    <glyph glyph-name="icircumflex" unicode="&#xee;" 
 />
    <glyph glyph-name="idieresis" unicode="&#xef;" 
 />
    <glyph glyph-name="eth" unicode="&#xf0;" 
 />
    <glyph glyph-name="ntilde" unicode="&#xf1;" 
 />
    <glyph glyph-name="ograve" unicode="&#xf2;" 
 />
    <glyph glyph-name="oacute" unicode="&#xf3;" 
 />
    <glyph glyph-name="ocircumflex" unicode="&#xf4;" 
 />
    <glyph glyph-name="otilde" unicode="&#xf5;" 
 />
    <glyph glyph-name="odieresis" unicode="&#xf6;" 
 />
    <glyph glyph-name="divide" unicode="&#xf7;" 
 />
    <glyph glyph-name="oslash" unicode="&#xf8;" 
 />
    <glyph glyph-name="ugrave" unicode="&#xf9;" 
 />
    <glyph glyph-name="uacute" unicode="&#xfa;" 
 />
    <glyph glyph-name="ucircumflex" unicode="&#xfb;" 
 />
    <glyph glyph-name="udieresis" unicode="&#xfc;" 
 />
    <glyph glyph-name="yacute" unicode="&#xfd;" 
 />
    <glyph glyph-name="thorn" unicode="&#xfe;" 
 />
    <glyph glyph-name="ydieresis" unicode="&#xff;" 
 />
    <glyph glyph-name="OE" unicode="&#x152;" 
 />
    <glyph glyph-name="oe" unicode="&#x153;" 
 />
    <glyph glyph-name="Scaron" unicode="&#x160;" 
 />
    <glyph glyph-name="scaron" unicode="&#x161;" 
 />
    <glyph glyph-name="Ydieresis" unicode="&#x178;" 
 />
    <glyph glyph-name="Zcaron" unicode="&#x17d;" 
 />
    <glyph glyph-name="zcaron" unicode="&#x17e;" 
 />
    <glyph glyph-name="florin" unicode="&#x192;" 
 />
    <glyph glyph-name="circumflex" unicode="&#x2c6;" 
 />
    <glyph glyph-name="tilde" unicode="&#x2dc;" 
 />
    <glyph glyph-name="endash" unicode="&#x2013;" 
 />
    <glyph glyph-name="emdash" unicode="&#x2014;" 
 />
    <glyph glyph-name="quoteleft" unicode="&#x2018;" 
 />
    <glyph glyph-name="quoteright" unicode="&#x2019;" 
 />
    <glyph glyph-name="quotesinglbase" unicode="&#x201a;" 
 />
    <glyph glyph-name="quotedblleft" unicode="&#x201c;" 
 />
    <glyph glyph-name="quotedblright" unicode="&#x201d;" 
 />
    <glyph glyph-name="quotedblbase" unicode="&#x201e;" 
 />
    <glyph glyph-name="dagger" unicode="&#x2020;" 
 />
    <glyph glyph-name="daggerdbl" unicode="&#x2021;" 
 />
    <glyph glyph-name="bullet" unicode="&#x2022;" 
 />
    <glyph glyph-name="ellipsis" unicode="&#x2026;" 
 />
    <glyph glyph-name="perthousand" unicode="&#x2030;" 
 />
    <glyph glyph-name="guilsinglleft" unicode="&#x2039;" 
 />
    <glyph glyph-name="guilsinglright" unicode="&#x203a;" 
 />
    <glyph glyph-name="Euro" unicode="&#x20ac;" 
 />
    <glyph glyph-name="trademark" unicode="&#x2122;" 
 />
    <glyph glyph-name="uni2219" unicode="&#x2219;" 
 />
  </font>
</defs>
</svg>
